# xmcd
#
# Track frame offsets:
#	150
#	12103
#	23995
#	38765
#	57452
#	67414
#	81678
#	93478
#	105361
#	118713
#	133652
#	145996
#	162523
#	174619
#	189354
#	201393
#	221492
#	237743
#	258433
#
# Disc length: 3628 seconds
#
# Revision: 1
# Processed by: cddbd v1.5.2PL0 Copyright (c) Steve Scherf et al.
# Submitted via: audiograbber 1.83.01
#
DISCID=240e2a13
DTITLE=FORROZÃO A3 - FORROZÃO A3 - SUCESSO ABSOLUTO
DYEAR=2012
DGENRE=Forró
TTITLE0=FORRÓ DOS PLAY'S - As Minas Curtem e Bebem (Gummy Bear)
TTITLE1=FORRÓ DOS PLAY'S - Tequila
TTITLE2=FORRÓ DOS PLAY'S - Erro Bom
TTITLE3=FORRÓ DOS PLAY'S - Amor de Chocolate
TTITLE4=FORRÓ DOS PLAY'S - Segunda-Feira Dia da Ressaca
TTITLE5=FORRÓ DOS PLAY'S - Estica o Braço
TTITLE6=FORRÓ DO MUÍDO - Minha Ex
TTITLE7=FORRÓ DO MUÍDO - Encosta
TTITLE8=FORRÓ DO MUÍDO - Corre, Corre
TTITLE9=FORRÓ DO MUÍDO - Namorar Escondido
TTITLE10=FORRÓ DO MUÍDO - Se Prepara
TTITLE11=DORGIVAL - KKKK
TTITLE12=DORGIVAL - Eu Estou Sem Amor
TTITLE13=DORGIVAL - Eu Não Vou Mais Chorar
TTITLE14=DORGIVAL - Destar
TTITLE15=DORGIVAL - Paixão Errada
TTITLE16=DORGIVAL - Tchau, Tchau
TTITLE17=DORGIVAL - Calma Coração
TTITLE18=DORGIVAL - Por Que
EXTD=
EXTT0=
EXTT1=
EXTT2=
EXTT3=
EXTT4=
EXTT5=
EXTT6=
EXTT7=
EXTT8=
EXTT9=
EXTT10=
EXTT11=
EXTT12=
EXTT13=
EXTT14=
EXTT15=
EXTT16=
EXTT17=
EXTT18=
PLAYORDER=
